<svg width="24" height="24" viewBox="0 0 24 24" fill="none" xmlns="http://www.w3.org/2000/svg">
<path d="M0 4H24V20.0002H0V4Z" fill="#F0F0F0"/>
<path d="M13.5 3.99985H10.5V10.4998H0V13.4998H10.5V19.9998H13.5V13.4998H24V10.4998H13.5V3.99985Z" fill="#D80027"/>
<path d="M18.4584 14.7824L23.9997 17.861V14.7824H18.4584ZM14.6084 14.7824L23.9997 19.9998V18.5244L17.2641 14.7824H14.6084ZM21.4982 19.9998L14.6084 16.1718V19.9998H21.4982Z" fill="#0052B4"/>
<path d="M14.6084 14.7824L23.9997 19.9998V18.5244L17.2641 14.7824H14.6084Z" fill="#F0F0F0"/>
<path d="M14.6084 14.7824L23.9997 19.9998V18.5244L17.2641 14.7824H14.6084Z" fill="#D80027"/>
<path d="M4.23473 14.7823L0 17.135V14.7823H4.23473ZM9.39131 15.4458V19.9997H1.19489L9.39131 15.4458Z" fill="#0052B4"/>
<path d="M6.73561 14.7824L0 18.5244V19.9998L9.39131 14.7824H6.73561Z" fill="#D80027"/>
<path d="M5.54133 9.21722L0 6.13866V9.21722H5.54133ZM9.39131 9.21722L0 3.99985V5.47519L6.73561 9.21722H9.39131ZM2.50153 3.99985L9.39131 7.82785V3.99985H2.50153Z" fill="#0052B4"/>
<path d="M9.39131 9.21722L0 3.99985V5.47519L6.73561 9.21722H9.39131Z" fill="#F0F0F0"/>
<path d="M9.39131 9.21722L0 3.99985V5.47519L6.73561 9.21722H9.39131Z" fill="#D80027"/>
<path d="M19.765 9.21733L23.9997 6.86467V9.21733H19.765ZM14.6084 8.55386V3.99991H22.8048L14.6084 8.55386Z" fill="#0052B4"/>
<path d="M17.2641 9.21722L23.9997 5.47519V3.99985L14.6084 9.21722H17.2641Z" fill="#D80027"/>
</svg>
