<svg width="431" height="654" viewBox="0 0 431 654" fill="none" xmlns="http://www.w3.org/2000/svg">
<path d="M431 0H210.202V352.775V352.963V360.475C210.107 402.165 170.55 438.504 125.953 436.063L99.8987 435.499V0H-147.048C-176.336 0 -204.577 4.13151 -231.298 11.7373C-358.717 47.7941 -452 163.758 -452 301.225V654H-231.298V301.225V301.131V300.849C-231.298 297 -231.298 294.183 -231.298 292.68C-231.202 250.99 -191.74 214.651 -147.048 217.186H-120.899V653.906H125.953C155.146 653.906 183.482 649.681 210.202 642.169C337.622 606.018 431 490.148 431 352.681V0Z" fill="url(#paint0_linear_72434_1325)" fill-opacity="0.05"/>
<defs>
<linearGradient id="paint0_linear_72434_1325" x1="-10.5" y1="0" x2="-10.5" y2="654" gradientUnits="userSpaceOnUse">
<stop stop-color="white"/>
<stop offset="1" stop-color="white" stop-opacity="0"/>
</linearGradient>
</defs>
</svg>
