<svg width="136" height="82" viewBox="0 0 136 82" fill="none" xmlns="http://www.w3.org/2000/svg">
<g clip-path="url(#clip0_72434_402)">
<path d="M106.411 0H87.2039V30.8568V30.8732V31.5302C87.1956 35.1769 83.7545 38.3554 79.8749 38.1418L77.6084 38.0925V0H56.126C53.5782 0 51.1214 0.361378 48.797 1.02664C37.7125 4.18049 29.5977 14.3237 29.5977 26.3478V57.2045H48.797V26.3478V26.3395V26.3149C48.797 25.9782 48.797 25.7318 48.797 25.6004C48.8053 21.9537 52.2381 18.7752 56.126 18.997H58.4008V57.1963H79.8749C82.4144 57.1963 84.8795 56.8267 87.2039 56.1697C98.2884 53.0076 106.411 42.8726 106.411 30.8486V0Z" fill="#ED1C24"/>
<path d="M135.652 66.7318H118.67L118.322 69.4339C119.323 69.13 120.854 68.9329 121.59 68.9329C121.639 68.9329 121.681 68.9411 121.73 68.9411V68.9247H124.51V79.8153C124.477 80.6859 124.245 81.4661 123.914 82H130.399C130.069 81.4661 129.845 80.6859 129.804 79.8235V68.9164H132.583V68.9329C132.633 68.9329 132.674 68.9247 132.716 68.9247C133.46 68.9247 134.982 69.13 135.983 69.4257L135.652 66.7318Z" fill="#4D555B"/>
<path d="M88.6262 68.8508L84.2173 78.0166L79.0473 67.8488C78.4599 67.1753 77.4838 66.74 76.3837 66.74H71.892C72.4379 67.0767 72.9922 67.6681 73.414 68.4401L79.7587 80.9241C80.2053 81.6715 81.3138 81.9918 82.3891 81.9918H85.2678L91.935 68.1116C92.3156 67.512 92.8119 67.0357 93.242 66.74H88.3367C88.6676 67.2739 89.0481 67.7174 88.6262 68.8508ZM115.006 68.9329C115.891 68.9658 116.677 69.1875 117.223 69.516L116.735 66.7236H101.043C101.274 67.0932 101.456 67.586 101.555 68.1444V80.2506C101.555 80.727 101.82 81.1541 102.258 81.4662C102.804 81.7947 103.483 81.9918 104.219 81.9918L116.743 81.9836L117.231 79.1993C116.685 79.5279 115.891 79.7496 115.014 79.7825V79.7989H106.866V75.4049H113.798C114.683 75.4459 115.477 75.6677 116.023 75.988V72.6124C115.477 72.9491 114.683 73.1627 113.798 73.2037V73.212H106.866V68.9165H115.006V68.9329ZM70.8662 66.74H64.0253L57.9702 77.8934L52.4941 67.8488C51.9068 67.1753 50.939 66.74 49.8388 66.74H44.9997C45.3388 67.2821 45.5539 68.0541 45.5953 68.9247V79.8071C45.5622 80.6777 45.3388 81.458 44.9997 81.9918H49.2598C48.9289 81.458 48.6973 80.6777 48.6642 79.8071V70.8548L54.132 80.883C54.5621 81.6633 55.6871 81.9918 56.7956 81.9918H58.7312L64.9766 70.5673V79.8071C64.9435 80.6777 64.7201 81.4497 64.3893 81.9836H70.8745C70.5354 81.4497 70.3203 80.6695 70.2789 79.7989V68.9247C70.312 68.0541 70.5271 67.2821 70.8662 66.74ZM17.1313 68.9247V77.8277L7.94112 67.8406C7.35381 67.1753 6.38599 66.74 5.29408 66.74H0C0.33088 67.2821 0.554224 68.0541 0.595584 68.9247V79.8071C0.554224 80.6777 0.33088 81.4579 0 82H4.25181C3.91266 81.4662 3.69759 80.6859 3.65623 79.8153V70.2552L13.6736 81.1459C14.2692 81.6633 15.1212 81.9918 16.0725 81.9918H20.2002V68.9247H20.2085C20.2499 68.0541 20.4732 67.2821 20.8041 66.74H16.544C16.8832 67.2821 17.0982 68.0541 17.1313 68.9247ZM99.8844 68.4237C99.9672 67.7256 100.166 67.1096 100.447 66.6497H94.003C94.3339 67.1835 94.5573 67.9473 94.5904 68.8179V80.2588C94.5904 80.7106 94.8385 81.1294 95.2521 81.4415C95.8063 81.7865 96.5012 82 97.2539 82H100.472C100.149 81.4744 99.9341 80.7434 99.8844 79.9139V68.4237ZM28.6625 75.5281L31.1855 71.093L33.7911 75.5281H28.6625ZM42.6339 80.5134L35.1726 67.8488C34.5439 67.1753 33.4933 66.74 32.3104 66.74H28.6129L29.5311 68.2923L22.7397 80.226C22.3179 81.0062 21.6561 81.6304 21.0936 81.9918H25.7838C25.7507 81.9343 25.7094 81.8768 25.6846 81.8111C25.5522 81.5565 25.5274 81.3101 25.6019 81.0227V81.0144C25.6267 80.9405 25.6515 80.8584 25.6846 80.7763C25.6928 80.768 25.6928 80.7598 25.7011 80.7516C25.7259 80.6941 27.4051 77.721 27.4051 77.721H35.0816L36.9428 80.883C37.406 81.6633 38.622 81.9918 39.8049 81.9918H44.1063C43.6183 81.6797 43.0475 81.1623 42.6339 80.5134Z" fill="#4D555B"/>
</g>
<defs>
<clipPath id="clip0_72434_402">
<rect width="136" height="82" fill="white"/>
</clipPath>
</defs>
</svg>
