<svg width="24" height="25" viewBox="0 0 24 25" fill="none" xmlns="http://www.w3.org/2000/svg">
<path d="M12 0.375C18.5625 0.375 23.625 5.20312 23.625 11.6719C23.625 19.875 15.7969 24.4688 8.625 22.5C8.20312 22.4062 8.15625 22.5 5.71875 23.5781C5.10938 23.8125 4.40625 23.3906 4.40625 22.7344C4.3125 20.5781 4.40625 20.3906 4.03125 20.0156C1.73438 18 0.375 15.0469 0.375 11.6719C0.375 5.20312 5.4375 0.375 12 0.375ZM18.9844 9.09375C19.3125 8.57812 18.7031 7.96875 18.1875 8.34375L14.5312 11.1094C14.25 11.2969 13.9219 11.2969 13.6875 11.1094L10.9688 9.09375C10.125 8.48438 8.95312 8.67188 8.4375 9.5625L5.01562 14.9531C4.6875 15.4688 5.29688 16.0781 5.8125 15.7031L9.46875 12.9375C9.75 12.75 10.0781 12.75 10.3125 12.9375L13.0312 14.9531C13.875 15.5625 15.0469 15.375 15.5625 14.4844L18.9844 9.09375Z" fill="white"/>
</svg>
