<svg width="28" height="28" viewBox="0 0 28 28" fill="none" xmlns="http://www.w3.org/2000/svg">
<path d="M8.75033 20.9999V3.98236L8.04391 3.50928C5.04033 4.71503 2.91699 7.64861 2.91699 11.0833V16.9166C2.91699 21.4269 6.57333 25.0833 11.0837 25.0833H16.917C19.6715 25.0833 22.0987 23.7136 23.5769 21.6235V20.9999H8.75033Z" fill="#2962FF"/>
<path d="M16.917 2.9165H11.0837C10.0074 2.9165 8.98308 3.13 8.04216 3.508C6.09791 5.39567 4.66699 8.4745 4.66699 11.0832C4.66699 15.0329 5.21299 17.3453 6.83233 19.6039C6.95833 19.7795 7.04058 19.9848 7.05166 20.2001C7.07674 20.6872 6.97641 21.5797 6.09849 22.3829C6.00399 22.4693 6.06408 22.6273 6.19183 22.6326C6.74133 22.6565 7.85024 22.6244 8.99008 22.121C9.31499 21.9775 9.68482 22.0026 9.99866 22.1694C11.9312 23.1955 14.1946 23.3332 16.3337 23.3332C19.0613 23.3332 21.7814 22.7265 23.5769 21.6322C24.5225 20.2993 25.0837 18.6747 25.0837 16.9165V11.0832C25.0837 6.57284 21.4273 2.9165 16.917 2.9165Z" fill="#EEEEEE"/>
<path d="M21.4375 15.75C20.2318 15.75 19.25 14.7682 19.25 13.5625C19.25 12.3568 20.2318 11.375 21.4375 11.375C22.6432 11.375 23.625 12.3568 23.625 13.5625C23.625 14.7682 22.6432 15.75 21.4375 15.75ZM21.4375 12.25C20.7142 12.25 20.125 12.8392 20.125 13.5625C20.125 14.2858 20.7142 14.875 21.4375 14.875C22.1608 14.875 22.75 14.2858 22.75 13.5625C22.75 12.8392 22.1608 12.25 21.4375 12.25Z" fill="#2962FF"/>
<path d="M18.375 15.75H17.7917C17.6307 15.75 17.5 15.6193 17.5 15.4583V10.5H18.375V15.75Z" fill="#2962FF"/>
<path d="M15.75 11.5208V11.8236C15.3831 11.5459 14.9316 11.375 14.4375 11.375C13.2318 11.375 12.25 12.3568 12.25 13.5625C12.25 14.7682 13.2318 15.75 14.4375 15.75C14.9316 15.75 15.3831 15.5791 15.75 15.3014V15.4583C15.75 15.6193 15.8807 15.75 16.0417 15.75H16.625V11.5208H15.75ZM14.4375 14.875C13.7142 14.875 13.125 14.2858 13.125 13.5625C13.125 12.8392 13.7142 12.25 14.4375 12.25C15.1608 12.25 15.75 12.8392 15.75 13.5625C15.75 14.2858 15.1608 14.875 14.4375 14.875Z" fill="#2962FF"/>
<path d="M12.3958 10.5H7.72917V11.375H10.8331L7.58333 15.1667H7.5985C7.50342 15.2897 7.4375 15.4367 7.4375 15.6042V15.75H11.8125C11.9735 15.75 12.1042 15.6193 12.1042 15.4583V14.875H9.00025L12.25 11.0833H12.2348C12.3299 10.9602 12.3958 10.8132 12.3958 10.6458V10.5Z" fill="#2962FF"/>
</svg>
